<svg width="26" height="25" viewBox="0 0 26 25" fill="none" xmlns="http://www.w3.org/2000/svg">
<path fill-rule="evenodd" clip-rule="evenodd" d="M7.74523 5.55556C7.74523 4.08213 8.33054 2.66905 9.37241 1.62718C10.4143 0.585316 11.8274 0 13.3008 0C14.7742 0 16.1873 0.585316 17.2292 1.62718C18.271 2.66905 18.8563 4.08213 18.8563 5.55556C18.8563 7.02898 18.271 8.44206 17.2292 9.48393C16.1873 10.5258 14.7742 11.1111 13.3008 11.1111C11.8274 11.1111 10.4143 10.5258 9.37241 9.48393C8.33054 8.44206 7.74523 7.02898 7.74523 5.55556ZM7.74523 13.8889C5.90344 13.8889 4.1371 14.6205 2.83476 15.9229C1.53243 17.2252 0.800781 18.9916 0.800781 20.8333C0.800781 21.9384 1.23977 22.9982 2.02117 23.7796C2.80257 24.561 3.86238 25 4.96745 25H21.6341C22.7392 25 23.799 24.561 24.5804 23.7796C25.3618 22.9982 25.8008 21.9384 25.8008 20.8333C25.8008 18.9916 25.0691 17.2252 23.7668 15.9229C22.4645 14.6205 20.6981 13.8889 18.8563 13.8889H7.74523Z" fill="black"/>
</svg>
