<svg width="24" height="29" viewBox="0 0 24 29" fill="none" xmlns="http://www.w3.org/2000/svg">
<path d="M22.4494 3.45342L5.87256 0.526233C5.40786 0.44561 4.93015 0.552522 4.54415 0.823535C4.15815 1.09455 3.89534 1.50755 3.81335 1.97201L0.0270899 23.4805C-0.0135659 23.711 -0.00841679 23.9472 0.0422431 24.1757C0.0929029 24.4042 0.188081 24.6205 0.322341 24.8122C0.4566 25.0039 0.627311 25.1672 0.824721 25.2929C1.02213 25.4186 1.24237 25.5042 1.47287 25.5448L18.0497 28.472C18.153 28.4908 18.2578 28.5002 18.3628 28.5C18.7799 28.4966 19.1826 28.347 19.5007 28.0773C19.8189 27.8075 20.0323 27.4346 20.1038 27.0237L23.8901 5.51518C23.9715 5.05084 23.8657 4.57313 23.5956 4.18669C23.3256 3.80025 22.9134 3.53658 22.4494 3.45342ZM22.3946 5.25301L18.6084 26.7615C18.6028 26.7946 18.5906 26.8263 18.5727 26.8547C18.5548 26.883 18.5315 26.9076 18.504 26.927C18.4489 26.9655 18.3807 26.9806 18.3144 26.9689L1.7325 24.043C1.69871 24.0377 1.66634 24.0256 1.63734 24.0074C1.60833 23.9893 1.58328 23.9655 1.56368 23.9375C1.54408 23.9094 1.53033 23.8777 1.52326 23.8443C1.51618 23.8108 1.51592 23.7762 1.5225 23.7427L5.30876 2.23419C5.31438 2.20109 5.3265 2.16943 5.34441 2.14104C5.36232 2.11264 5.38567 2.08807 5.41312 2.06874C5.46979 2.02922 5.53977 2.01367 5.60784 2.02546L22.1847 4.95265C22.2184 4.958 22.2508 4.97011 22.2798 4.98824C22.3088 5.00638 22.3339 5.03018 22.3535 5.05821C22.3731 5.08625 22.3868 5.11795 22.3939 5.15142C22.401 5.18489 22.4012 5.21944 22.3946 5.25301ZM19.3542 7.81748C19.3242 7.99507 19.2323 8.15633 19.0949 8.27278C18.9575 8.38922 18.7834 8.45335 18.6033 8.45383C18.5585 8.45381 18.5138 8.44998 18.4697 8.44238L7.90632 6.57661C7.80497 6.56209 7.70756 6.52734 7.6199 6.47442C7.53225 6.42149 7.45613 6.35148 7.39608 6.26854C7.33603 6.18561 7.29327 6.09144 7.27035 5.99165C7.24743 5.89185 7.24481 5.78847 7.26266 5.68764C7.2805 5.58681 7.31844 5.4906 7.37422 5.40474C7.42999 5.31887 7.50247 5.2451 7.58734 5.18781C7.6722 5.13052 7.76772 5.09088 7.86822 5.07125C7.96872 5.05163 8.07213 5.05241 8.17232 5.07356L18.7357 6.93805C18.9339 6.97348 19.1101 7.08576 19.2259 7.25046C19.3418 7.41517 19.3879 7.61896 19.3542 7.81748ZM18.6478 11.8252C18.6178 12.0028 18.526 12.164 18.3886 12.2805C18.2512 12.3969 18.0771 12.4611 17.897 12.4615C17.8542 12.4612 17.8116 12.4569 17.7697 12.4488L7.20634 10.5843C7.00686 10.549 6.82956 10.436 6.71344 10.27C6.59732 10.104 6.55191 9.89864 6.58718 9.69916C6.62245 9.49967 6.73553 9.32237 6.90152 9.20625C7.06752 9.09014 7.27285 9.04472 7.47234 9.07999L18.0357 10.9458C18.2327 10.9826 18.4074 11.0955 18.5219 11.2601C18.6364 11.4246 18.6817 11.6276 18.6478 11.8252ZM12.6662 14.9038C12.6348 15.0805 12.5422 15.2404 12.4047 15.3556C12.2671 15.4708 12.0934 15.5339 11.914 15.5338C11.8692 15.5337 11.8245 15.5299 11.7804 15.5224L6.5 14.5895C6.39864 14.575 6.30124 14.5402 6.21358 14.4873C6.12592 14.4344 6.04981 14.3643 5.98976 14.2814C5.92971 14.1985 5.88695 14.1043 5.86403 14.0045C5.84111 13.9047 5.83849 13.8013 5.85633 13.7005C5.87418 13.5997 5.91211 13.5035 5.96789 13.4176C6.02367 13.3317 6.09615 13.258 6.18101 13.2007C6.26588 13.1434 6.3614 13.1037 6.4619 13.0841C6.56239 13.0645 6.66581 13.0653 6.76599 13.0864L12.0464 14.018C12.1453 14.0358 12.2398 14.073 12.3244 14.1273C12.4089 14.1817 12.4819 14.2523 12.5391 14.3349C12.5964 14.4176 12.6367 14.5107 12.6579 14.609C12.679 14.7073 12.6805 14.8088 12.6624 14.9076L12.6662 14.9038Z" fill="black"/>
</svg>
