<svg width="21" height="21" viewBox="0 0 21 21" fill="none" xmlns="http://www.w3.org/2000/svg">
<path d="M6.08906 0.254883H14.4891C17.6891 0.254883 20.2891 2.85488 20.2891 6.05488V14.4549C20.2891 15.9931 19.678 17.4684 18.5903 18.5561C17.5026 19.6438 16.0273 20.2549 14.4891 20.2549H6.08906C2.88906 20.2549 0.289062 17.6549 0.289062 14.4549V6.05488C0.289063 4.51663 0.900132 3.04137 1.98784 1.95366C3.07555 0.865953 4.55081 0.254883 6.08906 0.254883ZM5.88906 2.25488C4.93428 2.25488 4.01861 2.63417 3.34348 3.3093C2.66835 3.98443 2.28906 4.9001 2.28906 5.85488V14.6549C2.28906 16.6449 3.89906 18.2549 5.88906 18.2549H14.6891C15.6438 18.2549 16.5595 17.8756 17.2346 17.2005C17.9098 16.5253 18.2891 15.6097 18.2891 14.6549V5.85488C18.2891 3.86488 16.6791 2.25488 14.6891 2.25488H5.88906ZM15.5391 3.75488C15.8706 3.75488 16.1885 3.88658 16.4229 4.121C16.6574 4.35542 16.7891 4.67336 16.7891 5.00488C16.7891 5.3364 16.6574 5.65435 16.4229 5.88877C16.1885 6.12319 15.8706 6.25488 15.5391 6.25488C15.2075 6.25488 14.8896 6.12319 14.6552 5.88877C14.4208 5.65435 14.2891 5.3364 14.2891 5.00488C14.2891 4.67336 14.4208 4.35542 14.6552 4.121C14.8896 3.88658 15.2075 3.75488 15.5391 3.75488ZM10.2891 5.25488C11.6151 5.25488 12.8869 5.78167 13.8246 6.71935C14.7623 7.65703 15.2891 8.9288 15.2891 10.2549C15.2891 11.581 14.7623 12.8527 13.8246 13.7904C12.8869 14.7281 11.6151 15.2549 10.2891 15.2549C8.96298 15.2549 7.69121 14.7281 6.75353 13.7904C5.81585 12.8527 5.28906 11.581 5.28906 10.2549C5.28906 8.9288 5.81585 7.65703 6.75353 6.71935C7.69121 5.78167 8.96298 5.25488 10.2891 5.25488ZM10.2891 7.25488C9.49341 7.25488 8.73035 7.57095 8.16774 8.13356C7.60513 8.69617 7.28906 9.45923 7.28906 10.2549C7.28906 11.0505 7.60513 11.8136 8.16774 12.3762C8.73035 12.9388 9.49341 13.2549 10.2891 13.2549C11.0847 13.2549 11.8478 12.9388 12.4104 12.3762C12.973 11.8136 13.2891 11.0505 13.2891 10.2549C13.2891 9.45923 12.973 8.69617 12.4104 8.13356C11.8478 7.57095 11.0847 7.25488 10.2891 7.25488Z" fill="black"/>
</svg>
