<svg width="21" height="21" viewBox="0 0 21 21" fill="none" xmlns="http://www.w3.org/2000/svg">
<path d="M18.4887 0.254883C19.0781 0.254883 19.6433 0.489009 20.0601 0.905757C20.4768 1.3225 20.7109 1.88774 20.7109 2.47711V18.0327C20.7109 18.622 20.4768 19.1873 20.0601 19.604C19.6433 20.0208 19.0781 20.2549 18.4887 20.2549H2.93316C2.34379 20.2549 1.77856 20.0208 1.36181 19.604C0.945064 19.1873 0.710938 18.622 0.710938 18.0327V2.47711C0.710938 1.88774 0.945064 1.3225 1.36181 0.905757C1.77856 0.489009 2.34379 0.254883 2.93316 0.254883H18.4887ZM17.9332 17.4771V11.5882C17.9332 10.6275 17.5515 9.70622 16.8722 9.02692C16.1929 8.34762 15.2716 7.96599 14.3109 7.96599C13.3665 7.96599 12.2665 8.54377 11.7332 9.41044V8.17711H8.63316V17.4771H11.7332V11.9993C11.7332 11.1438 12.422 10.4438 13.2776 10.4438C13.6902 10.4438 14.0858 10.6077 14.3775 10.8994C14.6693 11.1911 14.8332 11.5868 14.8332 11.9993V17.4771H17.9332ZM5.02205 6.43266C5.51712 6.43266 5.99191 6.236 6.34198 5.88593C6.69205 5.53586 6.88872 5.06107 6.88872 4.56599C6.88872 3.53266 6.05538 2.68822 5.02205 2.68822C4.52403 2.68822 4.04641 2.88605 3.69426 3.2382C3.34211 3.59036 3.14427 4.06798 3.14427 4.56599C3.14427 5.59933 3.98872 6.43266 5.02205 6.43266ZM6.56649 17.4771V8.17711H3.48872V17.4771H6.56649Z" fill="black"/>
</svg>
