<svg width="27" height="25" viewBox="0 0 27 25" fill="none" xmlns="http://www.w3.org/2000/svg">
<path d="M10.7651 24.7944C13.238 23.822 12.6962 21.1407 11.4458 19.4458C10.2094 17.7093 8.50062 16.5145 6.77795 15.3614C5.54882 14.5867 4.45137 13.6206 3.52711 12.4996C3.13812 12.0411 2.34624 11.1937 3.15201 11.027C3.97167 10.8603 5.3887 11.666 6.11111 11.9717C7.37533 12.4996 8.62566 13.1108 9.79263 13.8332L11.1958 11.4715C9.02854 10.0406 6.25004 8.77638 3.66603 8.40128C2.19343 8.179 0.637466 8.48463 0.137336 10.0823C-0.307224 11.4576 0.401294 12.8469 1.20706 13.9305C3.11033 16.4728 6.06944 17.6954 8.27834 19.8904C8.75069 20.3488 9.32028 20.8906 9.59813 21.5297C9.88987 22.141 9.82041 22.1826 9.16746 22.1826C7.44479 22.1826 5.29146 20.8351 3.88831 19.9459L2.48517 22.3077C4.61072 23.6136 8.1672 25.6558 10.7651 24.7944ZM26.1719 3.12213C26.4775 2.81649 26.4775 2.31636 26.1719 2.02462L24.3659 0.218595C24.2204 0.0783568 24.0261 0 23.8241 0C23.622 0 23.4278 0.0783568 23.2822 0.218595L21.8652 1.63563L24.7549 4.52527M12.5017 10.9992V13.8888H15.3913L23.9352 5.34493L21.0456 2.45529L12.5017 10.9992Z" fill="black"/>
</svg>
