<svg width="18" height="21" viewBox="0 0 18 21" fill="none" xmlns="http://www.w3.org/2000/svg">
<path d="M14.1113 3.38822C13.3518 2.52113 12.9332 1.40759 12.9335 0.254883H9.50017V14.0327C9.47369 14.7782 9.15892 15.4845 8.62213 16.0026C8.08535 16.5207 7.36845 16.8103 6.6224 16.8104C5.04462 16.8104 3.73351 15.5216 3.73351 13.9216C3.73351 12.0104 5.57795 10.5771 7.47795 11.166V7.65488C3.64462 7.14377 0.289062 10.1215 0.289062 13.9216C0.289062 17.6215 3.35573 20.2549 6.61128 20.2549C10.1002 20.2549 12.9335 17.4216 12.9335 13.9216V6.93266C14.3257 7.93249 15.9972 8.46894 17.7113 8.46599V5.03266C17.7113 5.03266 15.6224 5.13266 14.1113 3.38822Z" fill="black"/>
</svg>
